<?xml version="1.0" encoding="iso-8859-1"?>
<!-- Uploaded to: SVG Repo, www.svgrepo.com, Generator: SVG Repo Mixer Tools -->
<!DOCTYPE svg PUBLIC "-//W3C//DTD SVG 1.1//EN" "http://www.w3.org/Graphics/SVG/1.1/DTD/svg11.dtd">
<svg fill="#000000" height="800px" width="800px" version="1.1" id="Capa_1" xmlns="http://www.w3.org/2000/svg" xmlns:xlink="http://www.w3.org/1999/xlink" 
	 viewBox="0 0 60 60" xml:space="preserve">
<g>
	<path d="M49.347,46.762L31,34.209V16c0-0.829-0.672-1.5-1.5-1.5S28,15.171,28,16v18.233L10.622,46.784
		c-0.672,0.485-0.823,1.422-0.338,2.094c0.485,0.671,1.422,0.821,2.094,0.337l17.146-12.382l18.13,12.404
		c0.259,0.177,0.554,0.262,0.846,0.262c0.479,0,0.948-0.229,1.239-0.653C50.206,48.163,50.03,47.23,49.347,46.762z"/>
	<path d="M28,9.621V12c0,0.829,0.672,1.5,1.5,1.5S31,12.829,31,12V9.621l2.561-2.561c0.586-0.585,0.586-1.536,0-2.121
		c-0.586-0.586-1.535-0.586-2.121,0L29.5,6.879l-1.939-1.939c-0.586-0.586-1.535-0.586-2.121,0c-0.586,0.585-0.586,1.536,0,2.121
		L28,9.621z"/>
	<path d="M57.621,51l1.939-1.939c0.586-0.585,0.586-1.536,0-2.121c-0.586-0.586-1.535-0.586-2.121,0L55.5,48.879l-1.939-1.939
		c-0.586-0.586-1.535-0.586-2.121,0c-0.586,0.585-0.586,1.536,0,2.121L53.379,51l-1.939,1.939c-0.586,0.585-0.586,1.536,0,2.121
		c0.293,0.293,0.677,0.439,1.061,0.439s0.768-0.146,1.061-0.439l1.939-1.939l1.939,1.939c0.293,0.293,0.677,0.439,1.061,0.439
		s0.768-0.146,1.061-0.439c0.586-0.585,0.586-1.536,0-2.121L57.621,51z"/>
	<path d="M8.886,48.57c0.003-0.008,0.004-0.015,0.007-0.023C8.96,48.377,9,48.194,9,48s-0.04-0.377-0.107-0.547
		c-0.003-0.008-0.004-0.015-0.007-0.023c-0.152-0.37-0.447-0.664-0.816-0.816c-0.007-0.003-0.015-0.004-0.023-0.007
		C7.877,46.54,7.694,46.5,7.5,46.5h-6C0.672,46.5,0,47.171,0,48s0.672,1.5,1.5,1.5h2.379L0.44,52.938
		c-0.139,0.139-0.251,0.306-0.327,0.491c-0.003,0.008-0.004,0.015-0.007,0.023C0.04,53.623,0,53.806,0,54s0.04,0.377,0.107,0.547
		c0.003,0.008,0.004,0.015,0.007,0.023c0.152,0.37,0.447,0.664,0.816,0.816c0.007,0.003,0.015,0.004,0.023,0.007
		C1.123,55.46,1.306,55.5,1.5,55.5h6C8.328,55.5,9,54.829,9,54s-0.672-1.5-1.5-1.5H5.121l3.438-3.438
		C8.699,48.922,8.81,48.755,8.886,48.57z"/>
</g>
</svg>