<?xml version="1.0"?>
<svg xmlns="http://www.w3.org/2000/svg" viewBox="0 0 26 26" enable-background="new 0 0 26 26">
    <path d="M 0.8125 0 A 1.0001 1.0001 0 0 0 0.71875 0.03125 A 1.0001 1.0001 0 0 0 0.625 0.0625 A 1.0001 1.0001 0 0 0 0.53125 0.09375 A 1.0001 1.0001 0 0 0 0.5 0.125 A 1.0001 1.0001 0 0 0 0.4375 0.15625 A 1.0001 1.0001 0 0 0 0.40625 0.1875 A 1.0001 1.0001 0 0 0 0.34375 0.21875 A 1.0001 1.0001 0 0 0 0.34375 0.25 A 1.0001 1.0001 0 0 0 0.28125 0.28125 A 1.0001 1.0001 0 0 0 0.25 0.3125 A 1.0001 1.0001 0 0 0 0.21875 0.34375 A 1.0001 1.0001 0 0 0 0.1875 0.40625 A 1.0001 1.0001 0 0 0 0.15625 0.4375 A 1.0001 1.0001 0 0 0 0.15625 0.46875 A 1.0001 1.0001 0 0 0 0.09375 0.53125 A 1.0001 1.0001 0 0 0 0.09375 0.5625 A 1.0001 1.0001 0 0 0 0.0625 0.59375 A 1.0001 1.0001 0 0 0 0.0625 0.65625 A 1.0001 1.0001 0 0 0 0.03125 0.6875 A 1.0001 1.0001 0 0 0 0.03125 0.75 A 1.0001 1.0001 0 0 0 0 0.78125 A 1.0001 1.0001 0 0 0 0 0.84375 A 1.0001 1.0001 0 0 0 0 1.1875 L 0 18 A 1.0001 1.0001 0 0 0 0.25 18.65625 L 6.0625 25.40625 C 6.0870386 25.47005 6.1514204 25.507712 6.1875 25.5625 L 6.25 25.65625 C 6.2646057 25.673318 6.2653943 25.702894 6.28125 25.71875 A 1.0001 1.0001 0 0 0 6.5625 25.90625 C 6.5759938 25.912163 6.5798448 25.932152 6.59375 25.9375 A 1.0001 1.0001 0 0 0 6.65625 25.9375 C 6.7242534 25.959126 6.7987228 25.960524 6.875 25.96875 A 1.0001 1.0001 0 0 0 6.9375 26 C 6.9594681 26.001119 6.9774566 26 7 26 A 1.0001 1.0001 0 0 0 7.0625 26 L 25 26 C 25.6 26 26 25.6 26 25 L 26 7.0625 A 1.0001 1.0001 0 0 0 26 7 C 26 6.9887283 26.000281 6.9798792 26 6.96875 A 1.0001 1.0001 0 0 0 25.9375 6.65625 C 25.907694 6.5625263 25.865566 6.4820645 25.8125 6.40625 A 1.0001 1.0001 0 0 0 25.65625 6.25 L 25.5625 6.1875 C 25.507712 6.1514204 25.47005 6.0870386 25.40625 6.0625 L 18.65625 0.25 A 1.0001 1.0001 0 0 0 18 0 L 1.1875 0 L 1 0 A 1.0001 1.0001 0 0 0 0.90625 0 A 1.0001 1.0001 0 0 0 0.8125 0 z M 3.4375 2 L 17.625 2 L 22.3125 6 L 7.4375 6 L 3.4375 2 z M 2 3.4375 L 6 7.4375 L 6 22.3125 L 2 17.625 L 2 3.4375 z"/>
</svg>
