<?xml version="1.0"?>
<svg xmlns="http://www.w3.org/2000/svg" viewBox="0 0 50 50">
    <path style="line-height:normal;text-indent:0;text-align:start;text-decoration-line:none;text-decoration-style:solid;text-decoration-color:#000;text-transform:none;block-progression:tb;isolation:auto;mix-blend-mode:normal" d="M 24.988281 3 A 1.0001 1.0001 0 0 0 24.621094 3.0742188 L 4.6210938 11.242188 A 1.0001 1.0001 0 0 0 4.6054688 11.25 A 1.0001 1.0001 0 0 0 4.5761719 11.263672 A 1.0001 1.0001 0 0 0 4.5195312 11.291016 A 1.0001 1.0001 0 0 0 4.4824219 11.3125 A 1.0001 1.0001 0 0 0 4.4316406 11.345703 A 1.0001 1.0001 0 0 0 4.4121094 11.361328 A 1.0001 1.0001 0 0 0 4.3515625 11.40625 A 1.0001 1.0001 0 0 0 4.3359375 11.419922 A 1.0001 1.0001 0 0 0 4.2753906 11.480469 A 1.0001 1.0001 0 0 0 4.2128906 11.548828 A 1.0001 1.0001 0 0 0 4.1953125 11.574219 A 1.0001 1.0001 0 0 0 4.1542969 11.634766 A 1.0001 1.0001 0 0 0 4.1503906 11.642578 A 1.0001 1.0001 0 0 0 4.1035156 11.722656 A 1.0001 1.0001 0 0 0 4.0996094 11.732422 A 1.0001 1.0001 0 0 0 4.0664062 11.814453 A 1.0001 1.0001 0 0 0 4.0625 11.824219 A 1.0001 1.0001 0 0 0 4.0332031 11.910156 A 1.0001 1.0001 0 0 0 4.03125 11.923828 A 1.0001 1.0001 0 0 0 4.0136719 12.001953 A 1.0001 1.0001 0 0 0 4.0097656 12.027344 A 1.0001 1.0001 0 0 0 4.0019531 12.109375 A 1.0001 1.0001 0 0 0 4 12.142578 A 1.0001 1.0001 0 0 0 4 12.167969 A 1.0001 1.0001 0 0 0 4 12.185547 L 4 36.832031 A 1.0001 1.0001 0 0 0 4.6210938 37.757812 L 24.621094 45.925781 A 1.0001 1.0001 0 0 0 25.001953 46 A 1.0001 1.0001 0 0 0 25.378906 45.925781 L 45.378906 37.759766 C 45.754906 37.605766 46 37.238031 46 36.832031 L 46 12.167969 C 46 12.167312 46.000001 12.166672 46 12.166016 A 1.0001 1.0001 0 0 0 45.972656 11.935547 C 45.97059 11.926882 45.967137 11.918749 45.964844 11.910156 A 1.0001 1.0001 0 0 0 45.888672 11.714844 C 45.884001 11.705659 45.879953 11.696536 45.875 11.6875 A 1.0001 1.0001 0 0 0 45.753906 11.509766 A 1.0001 1.0001 0 0 0 45.744141 11.498047 C 45.741366 11.494961 45.73719 11.493287 45.734375 11.490234 A 1.0001 1.0001 0 0 0 45.558594 11.337891 A 1.0001 1.0001 0 0 0 45.378906 11.242188 L 45.337891 11.226562 L 25.378906 3.0742188 A 1.0001 1.0001 0 0 0 24.988281 3 z M 25 5.0800781 L 42.351562 12.166016 L 25 19.251953 L 7.6484375 12.166016 L 25 5.0800781 z M 6 13.65625 L 24 21.005859 L 24 43.511719 L 6 36.162109 L 6 13.65625 z" font-weight="400" font-family="sans-serif" white-space="normal" overflow="visible"/>
</svg>
