<?xml version="1.0" encoding="UTF-8" standalone="no"?>
<svg
   viewBox="0 0 26 26"
   enable-background="new 0 0 26 26"
   version="1.1"
   id="svg1"
   sodipodi:docname="backView.svg"
   inkscape:version="1.3.2 (091e20e, 2023-11-25, custom)"
   xmlns:inkscape="http://www.inkscape.org/namespaces/inkscape"
   xmlns:sodipodi="http://sodipodi.sourceforge.net/DTD/sodipodi-0.dtd"
   xmlns="http://www.w3.org/2000/svg"
   xmlns:svg="http://www.w3.org/2000/svg">
  <sodipodi:namedview
     id="namedview1"
     pagecolor="#ffffff"
     bordercolor="#000000"
     borderopacity="0.25"
     inkscape:showpageshadow="2"
     inkscape:pageopacity="0.0"
     inkscape:pagecheckerboard="0"
     inkscape:deskcolor="#d1d1d1"
     inkscape:zoom="70.423077"
     inkscape:cx="12.9929"
     inkscape:cy="13"
     inkscape:window-width="3840"
     inkscape:window-height="2066"
     inkscape:window-x="-11"
     inkscape:window-y="-11"
     inkscape:window-maximized="1"
     inkscape:current-layer="svg1" />
  <defs
     id="defs1" />
  <path
     d="m 25.173109,25.999398 a 1.0001,1.0001 0 0 0 0.09375,-0.03125 1.0001,1.0001 0 0 0 0.09375,-0.03125 1.0001,1.0001 0 0 0 0.09375,-0.03125 1.0001,1.0001 0 0 0 0.03125,-0.03125 1.0001,1.0001 0 0 0 0.0625,-0.03125 1.0001,1.0001 0 0 0 0.03125,-0.03125 1.0001,1.0001 0 0 0 0.0625,-0.03125 1.0001,1.0001 0 0 0 0,-0.03125 1.0001,1.0001 0 0 0 0.0625,-0.03125 1.0001,1.0001 0 0 0 0.03125,-0.03125 1.0001,1.0001 0 0 0 0.03125,-0.03125 1.0001,1.0001 0 0 0 0.03125,-0.0625 1.0001,1.0001 0 0 0 0.03125,-0.03125 1.0001,1.0001 0 0 0 0,-0.03125 1.0001,1.0001 0 0 0 0.0625,-0.0625 1.0001,1.0001 0 0 0 0,-0.03125 1.0001,1.0001 0 0 0 0.03125,-0.03125 1.0001,1.0001 0 0 0 0,-0.0625 1.0001,1.0001 0 0 0 0.03125,-0.03125 1.0001,1.0001 0 0 0 0,-0.0625 1.0001,1.0001 0 0 0 0.03125,-0.03125 1.0001,1.0001 0 0 0 0,-0.0625 1.0001,1.0001 0 0 0 0,-0.34375 V 7.9993985 a 1.0001,1.0001 0 0 0 -0.25,-0.65625 l -5.8125,-6.74999998 c -0.02454,-0.0638 -0.08892,-0.101462 -0.125,-0.15625 l -0.0625,-0.09375 c -0.01461,-0.017068 -0.01539,-0.046644 -0.03125,-0.0625 a 1.0001,1.0001 0 0 0 -0.28125,-0.1875 c -0.01349,-0.005913 -0.01734,-0.025902 -0.03125,-0.03125 a 1.0001,1.0001 0 0 0 -0.0625,0 c -0.068,-0.021626 -0.142473,-0.023024 -0.21875,-0.03125 a 1.0001,1.0001 0 0 0 -0.0625,-0.0312499976 c -0.02197,-0.001119002 -0.03996,0 -0.0625,0 a 1.0001,1.0001 0 0 0 -0.0625,0 H 0.98560832 c -0.6,0 -1,0.39999999755 -1,0.99999999755 V 18.936898 a 1.0001,1.0001 0 0 0 0,0.0625 c 0,0.01127 -2.81e-4,0.02012 0,0.03125 a 1.0001,1.0001 0 0 0 0.0625,0.3125 c 0.02981,0.09372 0.07193,0.174186 0.125,0.25 a 1.0001,1.0001 0 0 0 0.15625,0.15625 l 0.09375,0.0625 c 0.05479,0.03608 0.09245,0.100462 0.15625,0.125 l 6.74999998,5.8125 a 1.0001,1.0001 0 0 0 0.65625,0.25 h 16.8125007 0.1875 a 1.0001,1.0001 0 0 0 0.09375,0 1.0001,1.0001 0 0 0 0.09375,0 z m -2.625,-2 H 8.3606083 l -4.6875,-4 H 18.548109 Z m 1.4375,-1.4375 -4,-4 V 3.6868985 l 4,4.6875 z"
     id="path1"
     style="fill:#a6a6a6;fill-opacity:1" />
  <rect
     style="fill:#878787;fill-opacity:1"
     id="rect1"
     width="15.790278"
     height="16.457674"
     x="2.0447843"
     y="1.8317859" />
  <path
     style="fill:#a6a6a6;fill-opacity:1;stroke-width:2.2;stroke-dasharray:none;stroke:#a6a6a6;stroke-opacity:1;stroke-linecap:round"
     d="M 8.0513381,24.920808 8.0371382,7.667941"
     id="path2" />
  <path
     style="fill:#a6a6a6;fill-opacity:1;stroke:#a6a6a6;stroke-width:2.2;stroke-linecap:round;stroke-dasharray:none;stroke-opacity:1"
     d="M 24.963408,8.1365374 8.1081376,7.923539"
     id="path3" />
  <path
     style="fill:#a6a6a6;fill-opacity:1;stroke:#a6a6a6;stroke-width:2.2;stroke-linecap:round;stroke-dasharray:none;stroke-opacity:1"
     d="M 0.99399235,1.0649918 8.0939377,7.8525396"
     id="path4" />
</svg>
