<?xml version="1.0" encoding="UTF-8" standalone="no"?>
<svg
   width="24"
   height="24"
   viewBox="0 0 24 24"
   fill="none"
   version="1.1"
   id="svg5"
   sodipodi:docname="frameView.svg"
   inkscape:version="1.3.2 (091e20e, 2023-11-25, custom)"
   xmlns:inkscape="http://www.inkscape.org/namespaces/inkscape"
   xmlns:sodipodi="http://sodipodi.sourceforge.net/DTD/sodipodi-0.dtd"
   xmlns="http://www.w3.org/2000/svg"
   xmlns:svg="http://www.w3.org/2000/svg">
  <defs
     id="defs5" />
  <sodipodi:namedview
     id="namedview5"
     pagecolor="#ffffff"
     bordercolor="#000000"
     borderopacity="0.25"
     inkscape:showpageshadow="2"
     inkscape:pageopacity="0.0"
     inkscape:pagecheckerboard="0"
     inkscape:deskcolor="#d1d1d1"
     inkscape:zoom="76.291667"
     inkscape:cx="11.993446"
     inkscape:cy="12"
     inkscape:window-width="3840"
     inkscape:window-height="2066"
     inkscape:window-x="-11"
     inkscape:window-y="-11"
     inkscape:window-maximized="1"
     inkscape:current-layer="svg5" />
  <path
     fill-rule="evenodd"
     clip-rule="evenodd"
     d="M11.7899 6.0463C11.9232 5.98457 12.0768 5.98457 12.2101 6.0463L17.2101 8.36209C17.3869 8.44395 17.5 8.62101 17.5 8.81579V14.6053C17.5 14.7837 17.4049 14.9486 17.2505 15.038L12.2505 17.9327C12.0956 18.0224 11.9044 18.0224 11.7495 17.9327L6.74948 15.038C6.59507 14.9486 6.5 14.7837 6.5 14.6053V8.81579C6.5 8.62101 6.61312 8.44395 6.78987 8.36209L11.7899 6.0463ZM7.5 9.62608L11.5 11.6331V16.6328L7.5 14.317V9.62608ZM12.5 16.6328L16.5 14.317V9.62608L12.5 11.6331V16.6328ZM12 10.7652L15.8492 8.83381L12 7.05103L8.15082 8.83381L12 10.7652Z"
     fill="#47495F"
     id="path1"
     style="fill:#a6a6a6;fill-opacity:1" />
  <path
     fill-rule="evenodd"
     clip-rule="evenodd"
     d="M2.5 3C2.5 2.72386 2.72386 2.5 3 2.5H6C6.27614 2.5 6.5 2.72386 6.5 3C6.5 3.27614 6.27614 3.5 6 3.5H3.5V6C3.5 6.27614 3.27614 6.5 3 6.5C2.72386 6.5 2.5 6.27614 2.5 6V3Z"
     fill="#47495F"
     id="path2"
     style="fill:#a6a6a6;fill-opacity:1" />
  <path
     fill-rule="evenodd"
     clip-rule="evenodd"
     d="M21 2.5C21.2761 2.5 21.5 2.72386 21.5 3V6C21.5 6.27614 21.2761 6.5 21 6.5C20.7239 6.5 20.5 6.27614 20.5 6V3.5L18 3.5C17.7239 3.5 17.5 3.27614 17.5 3C17.5 2.72386 17.7239 2.5 18 2.5L21 2.5Z"
     fill="#47495F"
     id="path3"
     style="fill:#a6a6a6;fill-opacity:1" />
  <path
     fill-rule="evenodd"
     clip-rule="evenodd"
     d="M3 21.5C2.72386 21.5 2.5 21.2761 2.5 21L2.5 18C2.5 17.7239 2.72386 17.5 3 17.5C3.27614 17.5 3.5 17.7239 3.5 18L3.5 20.5H6C6.27614 20.5 6.5 20.7239 6.5 21C6.5 21.2761 6.27614 21.5 6 21.5H3Z"
     fill="#47495F"
     id="path4"
     style="fill:#a6a6a6;fill-opacity:1" />
  <path
     fill-rule="evenodd"
     clip-rule="evenodd"
     d="M21.5 21C21.5 21.2761 21.2761 21.5 21 21.5H18C17.7239 21.5 17.5 21.2761 17.5 21C17.5 20.7239 17.7239 20.5 18 20.5H20.5V18C20.5 17.7239 20.7239 17.5 21 17.5C21.2761 17.5 21.5 17.7239 21.5 18V21Z"
     fill="#47495F"
     id="path5"
     style="fill:#a6a6a6;fill-opacity:1" />
</svg>
