<?xml version="1.0" encoding="UTF-8" standalone="no"?>
<svg
   height="16px"
   id="Layer_1"
   style="enable-background:new 0 0 16 16;"
   version="1.1"
   viewBox="0 0 16 16"
   width="16px"
   xml:space="preserve"
   sodipodi:docname="Home-icon.svg"
   inkscape:version="1.3.2 (091e20e, 2023-11-25, custom)"
   xmlns:inkscape="http://www.inkscape.org/namespaces/inkscape"
   xmlns:sodipodi="http://sodipodi.sourceforge.net/DTD/sodipodi-0.dtd"
   xmlns="http://www.w3.org/2000/svg"
   xmlns:svg="http://www.w3.org/2000/svg"><defs
     id="defs1" /><sodipodi:namedview
     id="namedview1"
     pagecolor="#ffffff"
     bordercolor="#000000"
     borderopacity="0.25"
     inkscape:showpageshadow="2"
     inkscape:pageopacity="0.0"
     inkscape:pagecheckerboard="0"
     inkscape:deskcolor="#d1d1d1"
     inkscape:zoom="114.4375"
     inkscape:cx="7.9956308"
     inkscape:cy="8"
     inkscape:window-width="3840"
     inkscape:window-height="2066"
     inkscape:window-x="-11"
     inkscape:window-y="-11"
     inkscape:window-maximized="1"
     inkscape:current-layer="Layer_1" /><path
     d="M15.45,7L14,5.551V2c0-0.55-0.45-1-1-1h-1c-0.55,0-1,0.45-1,1v0.553L9,0.555C8.727,0.297,8.477,0,8,0S7.273,0.297,7,0.555  L0.55,7C0.238,7.325,0,7.562,0,8c0,0.563,0.432,1,1,1h1v6c0,0.55,0.45,1,1,1h3v-5c0-0.55,0.45-1,1-1h2c0.55,0,1,0.45,1,1v5h3  c0.55,0,1-0.45,1-1V9h1c0.568,0,1-0.437,1-1C16,7.562,15.762,7.325,15.45,7z"
     id="path1"
     style="stroke:none;stroke-opacity:1;fill:#a6a6a6;fill-opacity:1" /></svg>
