<?xml version="1.0" encoding="UTF-8" standalone="no"?>
<svg
   viewBox="0 0 26 26"
   enable-background="new 0 0 26 26"
   version="1.1"
   id="svg1"
   sodipodi:docname="rightView.svg"
   inkscape:version="1.3.2 (091e20e, 2023-11-25, custom)"
   xmlns:inkscape="http://www.inkscape.org/namespaces/inkscape"
   xmlns:sodipodi="http://sodipodi.sourceforge.net/DTD/sodipodi-0.dtd"
   xmlns="http://www.w3.org/2000/svg"
   xmlns:svg="http://www.w3.org/2000/svg">
  <sodipodi:namedview
     id="namedview1"
     pagecolor="#ffffff"
     bordercolor="#000000"
     borderopacity="0.25"
     inkscape:showpageshadow="2"
     inkscape:pageopacity="0.0"
     inkscape:pagecheckerboard="0"
     inkscape:deskcolor="#d1d1d1"
     inkscape:zoom="70.423077"
     inkscape:cx="12.9929"
     inkscape:cy="13"
     inkscape:window-width="3840"
     inkscape:window-height="2066"
     inkscape:window-x="-11"
     inkscape:window-y="-11"
     inkscape:window-maximized="1"
     inkscape:current-layer="svg1" />
  <defs
     id="defs1" />
  <path
     style="line-height:normal;-inkscape-font-specification:'Bitstream Vera Sans';text-indent:0;text-align:start;text-transform:none;fill:#a6a6a6;fill-opacity:1"
     d="m 25.173109,0 a 1.0001,1.0001 0 0 1 0.09375,0.03125 1.0001,1.0001 0 0 1 0.09375,0.03125 1.0001,1.0001 0 0 1 0.09375,0.03125 1.0001,1.0001 0 0 1 0.03125,0.03125 1.0001,1.0001 0 0 1 0.0625,0.03125 1.0001,1.0001 0 0 1 0.03125,0.03125 1.0001,1.0001 0 0 1 0.0625,0.03125 1.0001,1.0001 0 0 1 0,0.03125 1.0001,1.0001 0 0 1 0.0625,0.03125 1.0001,1.0001 0 0 1 0.03125,0.03125 1.0001,1.0001 0 0 1 0.03125,0.03125 1.0001,1.0001 0 0 1 0.03125,0.0625 1.0001,1.0001 0 0 1 0.03125,0.03125 1.0001,1.0001 0 0 1 0,0.03125 1.0001,1.0001 0 0 1 0.0625,0.0625 1.0001,1.0001 0 0 1 0,0.03125 1.0001,1.0001 0 0 1 0.03125,0.03125 1.0001,1.0001 0 0 1 0,0.0625 1.0001,1.0001 0 0 1 0.03125,0.03125 1.0001,1.0001 0 0 1 0,0.0625 1.0001,1.0001 0 0 1 0.03125,0.03125 1.0001,1.0001 0 0 1 0,0.0625 1.0001,1.0001 0 0 1 0,0.34375 V 18 a 1.0001,1.0001 0 0 1 -0.25,0.65625 l -5.9375,6.90625 a 1.0001,1.0001 0 0 1 -0.1875,0.21875 1.0001,1.0001 0 0 1 -0.03125,0 1.0001,1.0001 0 0 1 -0.125,0.125 1.0001,1.0001 0 0 1 -0.03125,0 1.0001,1.0001 0 0 1 -0.0625,0.03125 1.0001,1.0001 0 0 1 -0.03125,0 1.0001,1.0001 0 0 1 -0.0625,0.03125 1.0001,1.0001 0 0 1 -0.03125,0 1.0001,1.0001 0 0 1 -0.25,0.03125 1.0001,1.0001 0 0 1 -0.0625,0 H 0.98560863 a 1.0001,1.0001 0 0 1 -1,-1 V 7.0625 a 1.0001,1.0001 0 0 1 0,-0.0625 1.0001,1.0001 0 0 1 0,-0.03125 1.0001,1.0001 0 0 1 0,-0.0625 1.0001,1.0001 0 0 1 0,-0.03125 1.0001,1.0001 0 0 1 0.03125,-0.0625 1.0001,1.0001 0 0 1 0,-0.03125 1.0001,1.0001 0 0 1 0.03125,-0.09375 1.0001,1.0001 0 0 1 0,-0.03125 1.0001,1.0001 0 0 1 0.03125,-0.03125 1.0001,1.0001 0 0 1 0,-0.03125 1.0001,1.0001 0 0 1 0.0625,-0.125 1.0001,1.0001 0 0 1 0.03125,-0.0625 1.0001,1.0001 0 0 1 0.0625,-0.0625 1.0001,1.0001 0 0 1 0.0625,-0.0625 1.0001,1.0001 0 0 1 0.03125,-0.03125 l 0.0625,-0.0625 a 1.0001,1.0001 0 0 1 0.125,-0.09375 L 7.3293586,0.25 A 1.0001,1.0001 0 0 1 7.9856086,0 H 24.985609 a 1.0001,1.0001 0 0 1 0.09375,0 1.0001,1.0001 0 0 1 0.09375,0 z m -2.625,2 H 8.3606086 l -4.6875,4 H 18.548109 Z m -4.5625,6 H 1.9856086 V 24 H 17.985609 Z"
     overflow="visible"
     enable-background="accumulate"
     font-family="'Bitstream Vera Sans'"
     id="path1" />
</svg>
