<svg xmlns="http://www.w3.org/2000/svg" viewBox="0 0 64 64"><path d="M28 16.32V24h8V9h6L32 0 22 9h6v7.32zM22 39l-10 6.43L8 48v-6L0 57l8 6v-6l10.39-6.68L22 48v-9zM64 57l-8-15v6l-4-2.57L42 39v9l3.61 2.32L56 57v6l8-6z"/><path d="M50.002 25.422 38 18.477V24a2 2 0 0 1-2 2h-8a2 2 0 0 1-2-2v-5.523l-12.002 6.945L32 35.844l18.002-10.422Z"/><path d="M40 48v-9a1.999 1.999 0 0 1 3.082-1.682L51 42.409V27.155L33 37.576V44a1 1 0 0 1-2 0v-6.424L13 27.155v15.254l7.918-5.091a2.003 2.003 0 0 1 2.04-.073A2.001 2.001 0 0 1 24 39v9c0 .681-.346 1.315-.919 1.682l-1.506.968L31 56.39v-8.391a1 1 0 0 1 2 0v8.391l9.425-5.74-1.506-.968A2 2 0 0 1 40 48Z"/></svg>