<?xml version="1.0" encoding="UTF-8" standalone="no"?>
<svg
   viewBox="0 0 26 26"
   enable-background="new 0 0 26 26"
   version="1.1"
   id="svg1"
   xmlns="http://www.w3.org/2000/svg"
   xmlns:svg="http://www.w3.org/2000/svg">
  <defs
     id="defs1" />
  <path
     style="line-height:normal;-inkscape-font-specification:'Bitstream Vera Sans';text-indent:0;text-align:start;text-transform:none"
     d="M 0.8125,25.999389 A 1.0001,1.0001 0 0 1 0.71875,25.968139 1.0001,1.0001 0 0 1 0.625,25.936889 1.0001,1.0001 0 0 1 0.53125,25.905639 1.0001,1.0001 0 0 1 0.5,25.874389 a 1.0001,1.0001 0 0 1 -0.0625,-0.03125 1.0001,1.0001 0 0 1 -0.03125,-0.03125 1.0001,1.0001 0 0 1 -0.0625,-0.03125 1.0001,1.0001 0 0 1 0,-0.03125 1.0001,1.0001 0 0 1 -0.0625,-0.03125 1.0001,1.0001 0 0 1 -0.03125,-0.03125 1.0001,1.0001 0 0 1 -0.03125,-0.03125 1.0001,1.0001 0 0 1 -0.03125,-0.0625 1.0001,1.0001 0 0 1 -0.03125,-0.03125 1.0001,1.0001 0 0 1 0,-0.03125 1.0001,1.0001 0 0 1 -0.0625,-0.0625 1.0001,1.0001 0 0 1 0,-0.03125 1.0001,1.0001 0 0 1 -0.03125,-0.03125 1.0001,1.0001 0 0 1 0,-0.0625 1.0001,1.0001 0 0 1 -0.03125,-0.03125 1.0001,1.0001 0 0 1 0,-0.0625 A 1.0001,1.0001 0 0 1 0,25.218139 a 1.0001,1.0001 0 0 1 0,-0.0625 1.0001,1.0001 0 0 1 0,-0.34375 V 7.9993892 a 1.0001,1.0001 0 0 1 0.25,-0.65625 L 6.1875,0.43688922 a 1.0001,1.0001 0 0 1 0.1875,-0.21875 1.0001,1.0001 0 0 1 0.03125,0 1.0001,1.0001 0 0 1 0.125,-0.125 1.0001,1.0001 0 0 1 0.03125,0 1.0001,1.0001 0 0 1 0.0625,-0.03125 1.0001,1.0001 0 0 1 0.03125,0 1.0001,1.0001 0 0 1 0.0625,-0.03125 1.0001,1.0001 0 0 1 0.03125,0 1.0001,1.0001 0 0 1 0.1875,-0.0312499953 1.0001,1.0001 0 0 1 0.0625,0 1.0001,1.0001 0 0 1 0.0625,0 H 25 A 1.0001,1.0001 0 0 1 26,0.99938922 V 18.936889 a 1.0001,1.0001 0 0 1 0,0.0625 1.0001,1.0001 0 0 1 0,0.03125 1.0001,1.0001 0 0 1 0,0.0625 1.0001,1.0001 0 0 1 0,0.03125 1.0001,1.0001 0 0 1 -0.03125,0.0625 1.0001,1.0001 0 0 1 0,0.03125 1.0001,1.0001 0 0 1 -0.03125,0.09375 1.0001,1.0001 0 0 1 0,0.03125 1.0001,1.0001 0 0 1 -0.03125,0.03125 1.0001,1.0001 0 0 1 0,0.03125 1.0001,1.0001 0 0 1 -0.0625,0.125 1.0001,1.0001 0 0 1 -0.03125,0.0625 1.0001,1.0001 0 0 1 -0.0625,0.0625 1.0001,1.0001 0 0 1 -0.0625,0.0625 1.0001,1.0001 0 0 1 -0.03125,0.03125 l -0.0625,0.0625 a 1.0001,1.0001 0 0 1 -0.125,0.09375 l -6.8125,5.84375 A 1.0001,1.0001 0 0 1 18,25.999389 H 1.1875 1 a 1.0001,1.0001 0 0 1 -0.09375,0 1.0001,1.0001 0 0 1 -0.09375,0 z M 2,22.561889 l 4,-4 V 3.6868892 l -4,4.6875 z m 6,-4.5625 H 24 V 1.9993892 H 8 Z"
     overflow="visible"
     enable-background="accumulate"
     font-family="'Bitstream Vera Sans'"
     id="path1" />
</svg>
