<?xml version="1.0" encoding="iso-8859-1"?>
<!-- Uploaded to: SVG Repo, www.svgrepo.com, Generator: SVG Repo Mixer Tools -->
<svg fill="#000000" height="800px" width="800px" version="1.1" id="Layer_1" xmlns="http://www.w3.org/2000/svg" xmlns:xlink="http://www.w3.org/1999/xlink" 
	 viewBox="0 0 512 512" xml:space="preserve">
<g>
	<g>
		<g>
			<path d="M121.762,420.407c0.493-0.494,0.96-1.012,1.403-1.552c0.203-0.247,0.379-0.507,0.569-0.761
				c0.227-0.303,0.462-0.6,0.673-0.916c0.203-0.304,0.379-0.619,0.565-0.931c0.171-0.286,0.35-0.565,0.508-0.859
				c0.17-0.318,0.314-0.644,0.467-0.969c0.145-0.307,0.298-0.609,0.429-0.923c0.13-0.315,0.236-0.637,0.35-0.957
				c0.121-0.337,0.25-0.669,0.355-1.014c0.097-0.32,0.168-0.645,0.249-0.968c0.089-0.351,0.187-0.698,0.258-1.056
				c0.074-0.375,0.118-0.753,0.172-1.13c0.044-0.311,0.104-0.618,0.135-0.933c0.138-1.4,0.138-2.811,0-4.211
				c-0.031-0.315-0.09-0.621-0.135-0.932c-0.054-0.378-0.098-0.756-0.173-1.13c-0.071-0.358-0.169-0.704-0.258-1.055
				c-0.081-0.324-0.152-0.649-0.249-0.969c-0.104-0.344-0.233-0.677-0.354-1.013c-0.115-0.32-0.22-0.642-0.35-0.957
				c-0.131-0.315-0.284-0.617-0.429-0.924c-0.153-0.324-0.296-0.65-0.466-0.968c-0.158-0.295-0.338-0.575-0.509-0.861
				c-0.186-0.311-0.362-0.626-0.565-0.929c-0.212-0.316-0.447-0.614-0.675-0.918c-0.19-0.253-0.365-0.512-0.567-0.759
				c-0.892-1.087-1.889-2.085-2.977-2.977c-0.246-0.202-0.505-0.377-0.757-0.566c-0.305-0.228-0.603-0.464-0.919-0.676
				c-0.303-0.203-0.617-0.378-0.928-0.564c-0.287-0.171-0.567-0.351-0.862-0.51c-0.317-0.169-0.642-0.313-0.965-0.465
				c-0.308-0.146-0.611-0.299-0.927-0.43c-0.313-0.13-0.633-0.234-0.951-0.348c-0.339-0.122-0.673-0.252-1.019-0.356
				c-0.318-0.096-0.641-0.167-0.963-0.248c-0.353-0.089-0.702-0.188-1.061-0.259c-0.372-0.074-0.747-0.117-1.122-0.171
				c-0.314-0.045-0.623-0.105-0.941-0.136c-0.7-0.069-1.402-0.106-2.105-0.106H21.333C9.551,384,0,393.551,0,405.333
				c0,11.782,9.551,21.333,21.333,21.333h33.83L6.248,475.582c-0.004,0.004-0.006,0.008-0.01,0.011
				c-0.493,0.494-0.96,1.012-1.403,1.552c-0.203,0.247-0.379,0.507-0.569,0.761c-0.227,0.303-0.462,0.6-0.673,0.916
				c-0.203,0.304-0.379,0.619-0.565,0.931c-0.171,0.286-0.35,0.565-0.508,0.859c-0.17,0.318-0.314,0.644-0.467,0.969
				c-0.145,0.307-0.298,0.609-0.429,0.923c-0.13,0.315-0.236,0.637-0.35,0.957c-0.121,0.337-0.25,0.669-0.354,1.013
				c-0.097,0.32-0.168,0.646-0.249,0.969c-0.089,0.351-0.187,0.698-0.258,1.055c-0.074,0.375-0.119,0.753-0.173,1.13
				c-0.044,0.311-0.104,0.617-0.135,0.933c-0.138,1.4-0.138,2.811,0,4.211c0.031,0.315,0.09,0.621,0.135,0.933
				c0.054,0.377,0.098,0.756,0.173,1.13c0.071,0.358,0.169,0.704,0.258,1.055c0.081,0.324,0.152,0.649,0.249,0.969
				c0.104,0.344,0.233,0.677,0.354,1.013c0.115,0.32,0.22,0.642,0.35,0.957c0.13,0.315,0.284,0.616,0.429,0.923
				c0.153,0.324,0.297,0.651,0.467,0.969c0.158,0.294,0.337,0.573,0.508,0.859c0.186,0.311,0.362,0.627,0.565,0.931
				c0.211,0.316,0.446,0.612,0.673,0.916c0.19,0.254,0.366,0.514,0.569,0.761c0.443,0.54,0.91,1.059,1.403,1.552
				c0.004,0.004,0.006,0.008,0.01,0.011c0.004,0.004,0.008,0.007,0.012,0.011c0.493,0.492,1.012,0.959,1.551,1.402
				c0.247,0.203,0.507,0.379,0.76,0.568c0.304,0.227,0.601,0.463,0.917,0.674c0.303,0.203,0.618,0.379,0.93,0.565
				c0.286,0.171,0.565,0.35,0.86,0.508c0.318,0.17,0.645,0.314,0.969,0.467c0.307,0.145,0.609,0.298,0.923,0.428
				c0.315,0.13,0.636,0.235,0.956,0.35c0.337,0.121,0.67,0.25,1.015,0.355c0.32,0.097,0.645,0.168,0.968,0.249
				c0.351,0.089,0.698,0.187,1.056,0.258c0.375,0.074,0.753,0.118,1.13,0.172c0.311,0.044,0.618,0.104,0.933,0.135
				c0.7,0.069,1.402,0.106,2.104,0.106c0,0,0.001,0,0.001,0h85.333c11.782,0,21.333-9.551,21.333-21.333
				s-9.551-21.333-21.333-21.333h-33.83l48.915-48.915C121.755,420.415,121.758,420.411,121.762,420.407z"/>
			<path d="M478.17,448l27.582-27.582c8.331-8.331,8.331-21.839,0-30.17c-8.331-8.331-21.839-8.331-30.17,0L448,417.83
				l-27.582-27.582c-8.331-8.331-21.839-8.331-30.17,0s-8.331,21.839,0,30.17L417.83,448l-27.582,27.582
				c-8.331,8.331-8.331,21.839,0,30.17c8.331,8.331,21.839,8.331,30.17,0L448,478.17l27.582,27.582
				c8.331,8.331,21.839,8.331,30.17,0c8.331-8.331,8.331-21.839,0-30.17L478.17,448z"/>
			<path d="M234.667,72.837v33.83c0,11.782,9.551,21.333,21.333,21.333s21.333-9.551,21.333-21.333v-33.83l36.418-36.418
				c8.331-8.331,8.331-21.839,0-30.17c-8.331-8.331-21.839-8.331-30.17,0L256,33.83L228.418,6.248
				c-8.331-8.331-21.839-8.331-30.17,0c-8.331,8.331-8.331,21.839,0,30.17L234.667,72.837z"/>
			<path d="M375.994,346.008l-98.66-78.928v-96.413c0-11.782-9.551-21.333-21.333-21.333s-21.333,9.551-21.333,21.333v96.413
				l-98.66,78.928c-9.2,7.36-10.692,20.785-3.332,29.985s20.785,10.692,29.985,3.332L256,304.653l93.34,74.672
				c9.2,7.36,22.625,5.869,29.985-3.332C386.685,366.793,385.194,353.368,375.994,346.008z"/>
		</g>
	</g>
</g>
</svg>