<svg xmlns="http://www.w3.org/2000/svg" viewBox="0 0 64 64"><path d="M6.02866 31.99999c-.05759-22.74945 27.75015-34.5377 44.00991-18.64771-.00012-.00033-3.20592-.00033-3.20592-.00033-.55164 0-.99889.44655-.99889.99841s.44726.99841.99889.99841h5.65049c.55164 0 .99889-.44655.99889-.99841 0 0 0-5.64823 0-5.64823-.02915-1.31-1.97016-1.31673-1.99779.00004 0-.00004 0 3.26996 0 3.26996C30.08443-8.35032-3.82774 13.37388 5.62739 41.31059c.18418.52512.76926.7891 1.2758.60623.51944-.18525.79111-.75563.60626-1.27531-.9828-2.76025-1.48078-5.66773-1.48078-8.64152zM58.37261 22.68962c-.45968-1.21816-2.30493-.5736-1.88219.66892.98279 2.76019 1.48078 5.66767 1.48078 8.64145.05716 22.75-27.74994 34.53744-44.00991 18.64771.00012.00033 3.20592.00033 3.20592.00033 1.31947-.02507 1.30778-1.9751-.00004-1.99682.00004 0-5.65045 0-5.65045 0-.55164 0-.99889.44655-.99889.99841v5.64823c.0286 1.31053 1.97071 1.31608 1.99779-.00004 0 .00004 0-3.26996 0-3.26996 21.39926 20.32247 55.3122-1.40176 45.85699-29.33824z"/><path d="M17.01651 40.06711c0 .35947.18979.68891.49945.86867l13.48508 7.7776v-16.13435l-13.98453-8.06711v15.55519zM45.98446 22.77469l-13.48508-7.77766c-.30966-.17971-.68924-.17971-.99889 0l-13.49508 7.77766 13.99453 8.07711 13.98453-8.07711zM46.98336 40.06711v-15.56519l-13.98453 8.07711v16.13435l13.48508-7.7776c.30966-.17977.49945-.5092.49945-.86867z"/></svg>