<?xml version="1.0"?>
<svg xmlns="http://www.w3.org/2000/svg" viewBox="0 0 26 26" enable-background="new 0 0 26 26">
    <path style="text-indent:0;text-align:start;line-height:normal;text-transform:none;block-progression:tb;-inkscape-font-specification:Bitstream Vera Sans" d="M 0.8125 0 A 1.0001 1.0001 0 0 0 0.71875 0.03125 A 1.0001 1.0001 0 0 0 0.625 0.0625 A 1.0001 1.0001 0 0 0 0.53125 0.09375 A 1.0001 1.0001 0 0 0 0.5 0.125 A 1.0001 1.0001 0 0 0 0.4375 0.15625 A 1.0001 1.0001 0 0 0 0.40625 0.1875 A 1.0001 1.0001 0 0 0 0.34375 0.21875 A 1.0001 1.0001 0 0 0 0.34375 0.25 A 1.0001 1.0001 0 0 0 0.28125 0.28125 A 1.0001 1.0001 0 0 0 0.25 0.3125 A 1.0001 1.0001 0 0 0 0.21875 0.34375 A 1.0001 1.0001 0 0 0 0.1875 0.40625 A 1.0001 1.0001 0 0 0 0.15625 0.4375 A 1.0001 1.0001 0 0 0 0.15625 0.46875 A 1.0001 1.0001 0 0 0 0.09375 0.53125 A 1.0001 1.0001 0 0 0 0.09375 0.5625 A 1.0001 1.0001 0 0 0 0.0625 0.59375 A 1.0001 1.0001 0 0 0 0.0625 0.65625 A 1.0001 1.0001 0 0 0 0.03125 0.6875 A 1.0001 1.0001 0 0 0 0.03125 0.75 A 1.0001 1.0001 0 0 0 0 0.78125 A 1.0001 1.0001 0 0 0 0 0.84375 A 1.0001 1.0001 0 0 0 0 1.1875 L 0 18 A 1.0001 1.0001 0 0 0 0.25 18.65625 L 6.1875 25.5625 A 1.0001 1.0001 0 0 0 6.375 25.78125 A 1.0001 1.0001 0 0 0 6.40625 25.78125 A 1.0001 1.0001 0 0 0 6.53125 25.90625 A 1.0001 1.0001 0 0 0 6.5625 25.90625 A 1.0001 1.0001 0 0 0 6.625 25.9375 A 1.0001 1.0001 0 0 0 6.65625 25.9375 A 1.0001 1.0001 0 0 0 6.71875 25.96875 A 1.0001 1.0001 0 0 0 6.75 25.96875 A 1.0001 1.0001 0 0 0 6.9375 26 A 1.0001 1.0001 0 0 0 7 26 A 1.0001 1.0001 0 0 0 7.0625 26 L 25 26 A 1.0001 1.0001 0 0 0 26 25 L 26 7.0625 A 1.0001 1.0001 0 0 0 26 7 A 1.0001 1.0001 0 0 0 26 6.96875 A 1.0001 1.0001 0 0 0 26 6.90625 A 1.0001 1.0001 0 0 0 26 6.875 A 1.0001 1.0001 0 0 0 25.96875 6.8125 A 1.0001 1.0001 0 0 0 25.96875 6.78125 A 1.0001 1.0001 0 0 0 25.9375 6.6875 A 1.0001 1.0001 0 0 0 25.9375 6.65625 A 1.0001 1.0001 0 0 0 25.90625 6.625 A 1.0001 1.0001 0 0 0 25.90625 6.59375 A 1.0001 1.0001 0 0 0 25.84375 6.46875 A 1.0001 1.0001 0 0 0 25.8125 6.40625 A 1.0001 1.0001 0 0 0 25.75 6.34375 A 1.0001 1.0001 0 0 0 25.6875 6.28125 A 1.0001 1.0001 0 0 0 25.65625 6.25 L 25.59375 6.1875 A 1.0001 1.0001 0 0 0 25.46875 6.09375 L 18.65625 0.25 A 1.0001 1.0001 0 0 0 18 0 L 1.1875 0 L 1 0 A 1.0001 1.0001 0 0 0 0.90625 0 A 1.0001 1.0001 0 0 0 0.8125 0 z M 2 3.4375 L 6 7.4375 L 6 22.3125 L 2 17.625 L 2 3.4375 z M 8 8 L 24 8 L 24 24 L 8 24 L 8 8 z" overflow="visible" enable-background="accumulate" font-family="Bitstream Vera Sans"/>
</svg>
